HIERARCHY
ROOT Hips
{
	OFFSET 0.719733 86.094200 2.458922
	CHANNELS 6 Xposition Yposition Zposition Zrotation Yrotation Xrotation 
	JOINT Spine
	{
		OFFSET 0.000000 8.814246 -2.080107
		CHANNELS 3 Zrotation Yrotation Xrotation
		JOINT Spine1
		{
			OFFSET -0.000000 8.844141 -0.000000
			CHANNELS 3 Zrotation Yrotation Xrotation
			JOINT Spine2
			{
				OFFSET -0.000000 11.682268 0.000000
				CHANNELS 3 Zrotation Yrotation Xrotation
				JOINT Spine3
				{
					OFFSET 0.000000 11.746700 0.000000
					CHANNELS 3 Zrotation Yrotation Xrotation
					JOINT Neck
					{
						OFFSET 0.000000 17.658264 0.000000
						CHANNELS 3 Zrotation Yrotation Xrotation
						JOINT Neck1
						{
							OFFSET -0.000000 5.101515 -0.000000
							CHANNELS 3 Zrotation Yrotation Xrotation
							JOINT Head
							{
								OFFSET 0.000000 5.101515 -0.000000
								CHANNELS 3 Zrotation Yrotation Xrotation
								JOINT HeadEnd
								{
									OFFSET 0.000000 11.655085 0.000000
									CHANNELS 3 Zrotation Yrotation Xrotation
									End Site
									{
										OFFSET 0.000000 0.000000 0.000000
									}
								}
							}
						}
					}
					JOINT RightShoulder
					{
						OFFSET -2.625389 11.175210 -0.000000
						CHANNELS 3 Zrotation Yrotation Xrotation
						JOINT RightArm
						{
							OFFSET 0.000000 10.434715 -0.000000
							CHANNELS 3 Zrotation Yrotation Xrotation
							JOINT RightForeArm
							{
								OFFSET -0.000000 29.628420 -0.000000
								CHANNELS 3 Zrotation Yrotation Xrotation
								JOINT RightHand
								{
									OFFSET 0.000000 22.857611 0.000000
									CHANNELS 3 Zrotation Yrotation Xrotation
									JOINT RightHandThumb1
									{
										OFFSET -2.867323 3.959563 2.944291
										CHANNELS 3 Zrotation Yrotation Xrotation
										JOINT RightHandThumb2
										{
											OFFSET -0.000000 3.350399 0.000000
											CHANNELS 3 Zrotation Yrotation Xrotation
											JOINT RightHandThumb3
											{
												OFFSET -0.000000 3.756509 -0.000000
												CHANNELS 3 Zrotation Yrotation Xrotation
												JOINT RightHandThumb4
												{
													OFFSET -0.000000 3.147345 -0.000000
													CHANNELS 3 Zrotation Yrotation Xrotation
													End Site
													{
														OFFSET 0.000000 0.000000 0.000000
													}
												}
											}
										}
									}
									JOINT RightHandIndex1
									{
										OFFSET -0.086752 10.030893 2.345280
										CHANNELS 3 Zrotation Yrotation Xrotation
										JOINT RightHandIndex2
										{
											OFFSET -0.000000 4.061090 -0.000000
											CHANNELS 3 Zrotation Yrotation Xrotation
											JOINT RightHandIndex3
											{
												OFFSET 0.000000 3.248873 0.000000
												CHANNELS 3 Zrotation Yrotation Xrotation
												JOINT RightHandIndex4
												{
													OFFSET -0.000000 2.639709 -0.000000
													CHANNELS 3 Zrotation Yrotation Xrotation
													End Site
													{
														OFFSET 0.000000 0.000000 0.000000
													}
												}
											}
										}
									}
									JOINT RightHandMiddle1
									{
										OFFSET 0.104102 9.502952 0.006768
										CHANNELS 3 Zrotation Yrotation Xrotation
										JOINT RightHandMiddle2
										{
											OFFSET -0.000000 4.568727 -0.000000
											CHANNELS 3 Zrotation Yrotation Xrotation
											JOINT RightHandMiddle3
											{
												OFFSET -0.000000 3.654981 0.000000
												CHANNELS 3 Zrotation Yrotation Xrotation
												JOINT RightHandMiddle4
												{
													OFFSET 0.000000 2.741236 0.000000
													CHANNELS 3 Zrotation Yrotation Xrotation
													End Site
													{
														OFFSET 0.000000 0.000000 0.000000
													}
												}
											}
										}
									}
									JOINT RightHandRing1
									{
										OFFSET 0.086752 8.921708 -2.267442
										CHANNELS 3 Zrotation Yrotation Xrotation
										JOINT RightHandRing2
										{
											OFFSET -0.000000 4.061090 -0.000000
											CHANNELS 3 Zrotation Yrotation Xrotation
											JOINT RightHandRing3
											{
												OFFSET -0.000000 3.654981 -0.000000
												CHANNELS 3 Zrotation Yrotation Xrotation
												JOINT RightHandRing4
												{
													OFFSET 0.000000 2.741236 0.000000
													CHANNELS 3 Zrotation Yrotation Xrotation
													End Site
													{
														OFFSET 0.000000 0.000000 0.000000
													}
												}
											}
										}
									}
									JOINT RightHandPinky1
									{
										OFFSET -0.173504 7.976997 -4.467199
										CHANNELS 3 Zrotation Yrotation Xrotation
										JOINT RightHandPinky2
										{
											OFFSET -0.000000 3.350399 -0.000000
											CHANNELS 3 Zrotation Yrotation Xrotation
											JOINT RightHandPinky3
											{
												OFFSET -0.000000 2.842763 -0.000000
												CHANNELS 3 Zrotation Yrotation Xrotation
												JOINT RightHandPinky4
												{
													OFFSET 0.000000 2.639709 0.000000
													CHANNELS 3 Zrotation Yrotation Xrotation
													End Site
													{
														OFFSET 0.000000 0.000000 0.000000
													}
												}
											}
										}
									}
									JOINT RightForeArmEnd
									{
										OFFSET 0.000000 0.000000 0.000000
										CHANNELS 3 Zrotation Yrotation Xrotation
										End Site
										{
											OFFSET 0.000000 0.000000 0.000000
										}
									}
								}
								JOINT RightArmEnd
								{
									OFFSET 0.000000 0.000000 0.000000
									CHANNELS 3 Zrotation Yrotation Xrotation
									End Site
									{
										OFFSET 0.000000 0.000000 0.000000
									}
								}
							}
						}
					}
					JOINT LeftShoulder
					{
						OFFSET 2.625389 11.175210 -0.000000
						CHANNELS 3 Zrotation Yrotation Xrotation
						JOINT LeftArm
						{
							OFFSET 0.000000 10.813635 -0.000000
							CHANNELS 3 Zrotation Yrotation Xrotation
							JOINT LeftForeArm
							{
								OFFSET -0.000000 28.724781 0.000000
								CHANNELS 3 Zrotation Yrotation Xrotation
								JOINT LeftHand
								{
									OFFSET 0.644384 25.716167 -0.328871
									CHANNELS 3 Zrotation Yrotation Xrotation
									JOINT LeftHandThumb1
									{
										OFFSET 2.867323 3.959563 2.944291
										CHANNELS 3 Zrotation Yrotation Xrotation
										JOINT LeftHandThumb2
										{
											OFFSET 0.000000 3.350399 -0.000000
											CHANNELS 3 Zrotation Yrotation Xrotation
											JOINT LeftHandThumb3
											{
												OFFSET -0.000000 3.756509 -0.000000
												CHANNELS 3 Zrotation Yrotation Xrotation
												JOINT LeftHandThumb4
												{
													OFFSET -0.000000 3.100000 0.000000
													CHANNELS 3 Zrotation Yrotation Xrotation
													End Site
													{
														OFFSET 0.000000 0.000000 0.000000
													}
												}
											}
										}
									}
									JOINT LeftHandIndex1
									{
										OFFSET 0.086752 10.030893 2.345280
										CHANNELS 3 Zrotation Yrotation Xrotation
										JOINT LeftHandIndex2
										{
											OFFSET -0.000000 4.061090 0.000000
											CHANNELS 3 Zrotation Yrotation Xrotation
											JOINT LeftHandIndex3
											{
												OFFSET -0.000000 3.248873 0.000000
												CHANNELS 3 Zrotation Yrotation Xrotation
												JOINT LeftHandIndex4
												{
													OFFSET 0.000000 2.639709 -0.000000
													CHANNELS 3 Zrotation Yrotation Xrotation
													End Site
													{
														OFFSET 0.000000 0.000000 0.000000
													}
												}
											}
										}
									}
									JOINT LeftHandMiddle1
									{
										OFFSET -0.104102 9.502952 0.006768
										CHANNELS 3 Zrotation Yrotation Xrotation
										JOINT LeftHandMiddle2
										{
											OFFSET -0.000000 4.568727 0.000000
											CHANNELS 3 Zrotation Yrotation Xrotation
											JOINT LeftHandMiddle3
											{
												OFFSET 0.000000 3.654981 0.000000
												CHANNELS 3 Zrotation Yrotation Xrotation
												JOINT LeftHandMiddle4
												{
													OFFSET 0.000000 2.741236 -0.000000
													CHANNELS 3 Zrotation Yrotation Xrotation
													End Site
													{
														OFFSET 0.000000 0.000000 0.000000
													}
												}
											}
										}
									}
									JOINT LeftHandRing1
									{
										OFFSET -0.086752 8.921708 -2.267442
										CHANNELS 3 Zrotation Yrotation Xrotation
										JOINT LeftHandRing2
										{
											OFFSET -0.000000 4.061090 0.000000
											CHANNELS 3 Zrotation Yrotation Xrotation
											JOINT LeftHandRing3
											{
												OFFSET -0.000000 3.654981 0.000000
												CHANNELS 3 Zrotation Yrotation Xrotation
												JOINT LeftHandRing4
												{
													OFFSET -0.000000 2.741236 0.000000
													CHANNELS 3 Zrotation Yrotation Xrotation
													End Site
													{
														OFFSET 0.000000 0.000000 0.000000
													}
												}
											}
										}
									}
									JOINT LeftHandPinky1
									{
										OFFSET 0.173504 7.976997 -4.467199
										CHANNELS 3 Zrotation Yrotation Xrotation
										JOINT LeftHandPinky2
										{
											OFFSET 0.000000 3.350399 -0.000000
											CHANNELS 3 Zrotation Yrotation Xrotation
											JOINT LeftHandPinky3
											{
												OFFSET -0.000000 2.842763 0.000000
												CHANNELS 3 Zrotation Yrotation Xrotation
												JOINT LeftHandPinky4
												{
													OFFSET -0.000000 2.639709 0.000000
													CHANNELS 3 Zrotation Yrotation Xrotation
													End Site
													{
														OFFSET 0.000000 0.000000 0.000000
													}
												}
											}
										}
									}
									JOINT LeftForeArmEnd
									{
										OFFSET 0.000000 0.000000 0.000000
										CHANNELS 3 Zrotation Yrotation Xrotation
										End Site
										{
											OFFSET 0.000000 0.000000 0.000000
										}
									}
								}
								JOINT LeftArmEnd
								{
									OFFSET 0.000000 0.000000 0.000000
									CHANNELS 3 Zrotation Yrotation Xrotation
									End Site
									{
										OFFSET 0.000000 0.000000 0.000000
									}
								}
							}
						}
					}
				}
			}
		}
	}
	JOINT RightUpLeg
	{
		OFFSET -11.289943 -0.000000 -0.000000
		CHANNELS 3 Zrotation Yrotation Xrotation
		JOINT RightLeg
		{
			OFFSET -0.000000 -38.200325 -0.000000
			CHANNELS 3 Zrotation Yrotation Xrotation
			JOINT RightFoot
			{
				OFFSET -0.000000 -39.900856 -0.000000
				CHANNELS 3 Zrotation Yrotation Xrotation
				JOINT RightToeBase
				{
					OFFSET 0.000000 0.000000 15.261641
					CHANNELS 3 Zrotation Yrotation Xrotation
					JOINT RightToeBaseEnd
					{
						OFFSET 0.000000 0.000000 7.370709
						CHANNELS 3 Zrotation Yrotation Xrotation
						End Site
						{
							OFFSET 0.000000 0.000000 0.000000
						}
					}
				}
				JOINT RightLegEnd
				{
					OFFSET 0.000000 0.000000 0.000000
					CHANNELS 3 Zrotation Yrotation Xrotation
					End Site
					{
						OFFSET 0.000000 0.000000 0.000000
					}
				}
			}
			JOINT RightUpLegEnd
			{
				OFFSET 0.000000 0.000000 0.000000
				CHANNELS 3 Zrotation Yrotation Xrotation
				End Site
				{
					OFFSET 0.000000 0.000000 0.000000
				}
			}
		}
	}
	JOINT LeftUpLeg
	{
		OFFSET 11.315661 0.000000 -0.000000
		CHANNELS 3 Zrotation Yrotation Xrotation
		JOINT LeftLeg
		{
			OFFSET -0.000000 -38.200325 -0.000000
			CHANNELS 3 Zrotation Yrotation Xrotation
			JOINT LeftFoot
			{
				OFFSET -0.000000 -39.900856 0.000000
				CHANNELS 3 Zrotation Yrotation Xrotation
				JOINT LeftToeBase
				{
					OFFSET -0.000000 0.000000 15.261641
					CHANNELS 3 Zrotation Yrotation Xrotation
					JOINT LeftToeBaseEnd
					{
						OFFSET -0.000000 -0.000000 7.539996
						CHANNELS 3 Zrotation Yrotation Xrotation
						End Site
						{
							OFFSET 0.000000 0.000000 0.000000
						}
					}
				}
				JOINT LeftLegEnd
				{
					OFFSET 0.000000 0.000000 0.000000
					CHANNELS 3 Zrotation Yrotation Xrotation
					End Site
					{
						OFFSET 0.000000 0.000000 0.000000
					}
				}
			}
			JOINT LeftUpLegEnd
			{
				OFFSET 0.000000 0.000000 0.000000
				CHANNELS 3 Zrotation Yrotation Xrotation
				End Site
				{
					OFFSET 0.000000 0.000000 0.000000
				}
			}
		}
	}
}
MOTION
Frames: 4
Frame Time: 0.016667
0.719733 86.094200 2.458922 -0.735579 -0.052938 -4.116149 1.651892 -0.120676 2.788357 2.423558 -0.829887 3.553385 -1.868887 -0.231467 4.409896 -1.732635 -0.248273 0.370718 5.259263 1.301523 4.699206 -4.159396 0.623770 -10.824859 -0.415570 3.635005 -24.499113 0.000000 0.000000 0.000000 92.509743 -0.224429 4.581046 65.918732 -30.443583 -0.983146 0.805977 19.701910 38.254753 1.786473 8.532803 -14.816396 16.637400 -2.084624 37.370117 0.000000 0.000000 -40.320000 0.000000 0.000000 -28.000000 0.000000 0.000000 0.000000 43.910862 -0.000000 -9.437275 30.737598 0.000000 0.000000 30.737598 0.000000 0.000000 0.000000 0.000000 0.000000 44.860271 0.000001 -9.056112 31.402185 0.000000 0.000000 31.402185 0.000000 0.000000 0.000000 0.000000 0.000000 49.274651 0.000000 -5.376885 34.492256 0.000000 0.000000 34.492256 0.000000 0.000000 0.000000 0.000000 0.000000 51.126926 -0.000000 -1.271911 35.788849 0.000000 0.000000 35.788849 0.000000 0.000000 0.000000 0.000000 0.000000 0.000000 0.000000 0.000000 0.000000 0.000000 0.000000 -90.234245 0.031864 4.239579 -70.189209 26.321510 -12.779324 -1.047114 -8.407261 47.975254 17.575195 -13.561988 -18.344469 -18.137814 2.066984 36.797237 0.000000 0.000000 -43.919994 0.000000 0.000000 -30.500000 0.000000 0.000000 0.000000 -53.989975 0.000002 -18.881573 -37.792984 0.000000 0.000000 -37.792984 0.000000 0.000000 0.000000 0.000000 0.000000 -55.532696 -0.000001 -15.713613 -38.872894 0.000000 0.000000 -38.872894 0.000000 0.000000 0.000000 0.000000 0.000000 -62.636894 0.000000 -7.775413 -43.845829 0.000000 0.000000 -43.845829 0.000000 0.000000 0.000000 0.000000 0.000000 -66.305374 -0.000000 1.277068 -46.413776 0.000000 0.000000 -46.413776 0.000000 0.000000 0.000000 0.000000 0.000000 0.000000 0.000000 0.000000 0.000000 0.000000 0.000000 4.959793 4.560685 -2.418325 -0.238899 -0.485850 26.184069 -7.255984 -12.182077 11.049461 0.112558 -1.198749 -30.044567 0.000000 0.000000 0.000000 0.000000 0.000000 0.000000 0.000000 0.000000 0.000000 6.064538 -5.040062 -7.388041 0.393936 0.766912 27.090130 -0.345757 2.075258 11.910602 0.155961 1.036632 -32.436184 0.000000 0.000000 0.000000 0.000000 0.000000 0.000000 0.000000 0.000000 0.000000 
0.405684 85.921921 2.232685 -1.637654 -0.787449 -7.122672 2.143464 -0.330176 5.551866 3.486945 -1.049998 5.361992 -1.847179 0.252752 3.991332 -1.142363 -0.356491 -0.624307 2.762099 3.724217 0.815782 -3.184192 2.317888 -10.948756 -0.929101 2.607522 -20.714209 0.000000 0.000000 0.000000 93.241768 0.110808 5.167087 64.133636 -30.561663 0.477146 1.538658 20.349035 36.957420 0.277267 9.209802 -14.377268 15.747236 -2.014729 37.836143 0.000015 0.000039 -38.243931 0.000014 0.000036 -26.453518 0.000013 -0.000004 -0.000046 41.917175 -0.079277 -9.419015 29.348242 -0.059751 0.574229 29.436153 -0.042660 0.446289 -0.000007 0.000030 -0.000059 42.287743 -0.021519 -9.313709 29.448151 -0.019369 0.153425 29.482374 -0.003956 0.115438 0.000011 0.000104 -0.000011 46.432671 0.026029 -6.741686 32.632374 0.048937 -0.118254 32.642792 0.002554 -0.076156 -0.000024 -0.001069 0.000003 47.884247 0.086521 -6.127056 33.959755 0.004966 0.072814 33.652725 -0.041253 0.076613 0.000082 -0.000008 0.000086 0.000000 0.000000 0.000000 0.000000 0.000000 0.000000 -91.979706 0.201621 3.536349 -68.885994 29.195406 -8.544383 -2.550851 -13.979323 44.496803 17.359545 -13.125323 -16.779814 -17.381893 1.907667 37.286961 -0.000021 0.000033 -42.240635 0.000036 -0.000019 -29.221201 -0.001769 -0.000016 -0.001090 -51.928192 -0.044721 -17.821112 -36.339058 -0.013547 -0.049557 -36.496689 0.012163 -0.053422 0.000039 0.000158 0.000018 -52.612789 0.011390 -14.378432 -36.958008 -0.011153 0.015423 -36.727577 0.008765 0.016238 -0.001374 -0.000060 0.000146 -57.897011 0.012641 -7.243880 -41.105804 -0.000055 -0.065771 -40.988556 -0.022360 -0.036142 -0.000642 0.000018 0.000009 -59.544853 0.128644 -0.872485 -42.166809 -0.025233 -0.097964 -42.036140 -0.049273 -0.060903 0.000806 0.000005 -0.000046 0.000000 0.000000 0.000000 0.000000 0.000000 0.000000 7.122348 3.701031 -0.473941 -0.101993 0.084434 23.737167 -8.203293 -11.329254 13.973444 0.381187 -1.134161 -29.477043 0.000000 0.000000 0.000000 0.000000 0.000000 0.000000 0.000000 0.000000 0.000000 7.051857 -4.614000 -3.357624 0.371886 0.668607 29.226839 -1.510198 1.052679 12.962163 -0.021722 0.606604 -30.174370 0.000000 0.000000 0.000000 0.000000 0.000000 0.000000 0.000000 0.000000 0.000000 
0.206658 85.888329 2.185408 -1.488969 -1.078627 -7.064634 2.239780 -0.349575 5.527580 3.435332 -1.037431 5.332783 -1.812224 0.101254 3.843576 -1.204507 -0.432885 -0.566964 2.880880 3.625665 0.890238 -3.171352 2.059289 -11.044827 -0.887527 2.601255 -20.814800 0.000000 0.000000 0.000000 93.237885 0.094931 5.581355 63.783958 -30.693087 1.286057 1.527455 20.613701 35.769600 -0.168382 9.314918 -13.907870 15.473638 -2.043326 37.902309 -0.000002 0.000056 -37.614628 0.000024 0.000030 -26.013084 0.000017 -0.000004 -0.000054 40.582542 -0.063875 -9.440022 28.294561 -0.101091 0.592604 28.312500 -0.076662 0.457892 -0.000006 0.000033 -0.000045 41.019512 -0.016907 -9.469244 28.475323 -0.033975 0.163971 28.480482 -0.014538 0.122321 0.000011 0.000116 -0.000023 45.332932 0.020284 -7.051048 31.707809 0.076399 -0.123784 31.732077 0.018242 -0.079793 -0.000029 -0.001409 0.000005 46.723793 0.053987 -6.412421 33.176476 0.083705 0.071686 32.859348 0.017881 0.084674 -0.000080 -0.000005 0.000091 0.000000 0.000000 0.000000 0.000000 0.000000 0.000000 -91.712494 0.146739 3.682865 -69.096054 28.476715 -8.475980 -2.666890 -13.895580 43.495564 17.721582 -13.454844 -17.503426 -17.024807 1.926827 37.401535 -0.000022 0.000030 -41.415844 -0.000005 -0.000014 -28.645617 -0.001695 -0.000012 -0.001106 -50.329353 -0.029713 -17.635756 -35.121239 -0.045903 -0.120572 -35.288548 -0.020810 -0.109433 0.000038 0.000262 0.000016 -50.999313 0.016873 -14.471519 -35.781639 -0.025129 -0.010960 -35.567585 -0.000185 -0.001957 -0.001566 -0.000063 0.000132 -56.253544 0.008124 -7.488700 -39.948910 0.021896 -0.037361 -39.845730 -0.008523 -0.014807 -0.000371 0.000024 0.000011 -57.953037 0.095372 -1.143227 -41.128551 0.038335 -0.017030 -41.014591 -0.003979 -0.012256 0.000592 0.000012 -0.000059 0.000000 0.000000 0.000000 0.000000 0.000000 0.000000 7.143606 3.826576 -0.576237 -0.100118 0.082372 23.824692 -8.364966 -11.170591 13.825100 0.350743 -1.155024 -29.415113 0.000000 0.000000 0.000000 0.000000 0.000000 0.000000 0.000000 0.000000 0.000000 7.091158 -4.298879 -3.528316 0.381487 0.669695 29.451426 -1.585516 1.450992 12.977726 -0.016885 0.623591 -30.252337 0.000000 0.000000 0.000000 0.000000 0.000000 0.000000 0.000000 0.000000 0.000000 
0.021637 85.874901 2.132257 -1.394931 -1.377116 -7.019588 2.289845 -0.372037 5.540095 3.451085 -1.039333 5.429098 -1.815136 0.017755 3.642340 -1.223563 -0.486022 -0.551287 2.896422 3.562920 1.079777 -3.168471 1.840662 -11.075611 -0.848773 2.611428 -20.979124 0.000000 0.000000 0.000000 93.150192 0.073686 5.948728 63.449837 -30.726595 1.937814 1.473715 20.635050 35.074078 -0.622180 9.500103 -13.581344 15.112230 -2.053950 38.026356 -0.000006 0.000057 -36.779861 0.000024 0.000032 -25.422709 0.000017 -0.000005 -0.000054 38.864033 -0.057305 -9.198189 27.031765 -0.132442 0.615687 26.989212 -0.102108 0.471988 -0.000009 0.000030 -0.000045 39.405109 -0.015077 -9.436504 27.306351 -0.044091 0.173700 27.299444 -0.022206 0.127851 0.000012 0.000122 -0.000022 44.055061 0.017076 -7.253024 30.678299 0.095794 -0.127711 30.716486 0.028835 -0.081118 -0.000027 -0.001704 0.000007 45.534462 0.038938 -6.707566 32.354279 0.138191 0.078852 32.023426 0.056891 0.092232 -0.000180 -0.000006 0.000085 0.000000 0.000000 0.000000 0.000000 0.000000 0.000000 -91.406883 0.074574 3.866794 -69.150368 27.882488 -8.184431 -2.715429 -13.686227 42.651817 17.816277 -13.669913 -17.750425 -16.629824 1.946497 37.525635 -0.000024 0.000031 -40.509216 -0.000022 -0.000015 -28.013813 -0.001455 -0.000013 -0.000875 -48.392525 -0.023256 -17.279940 -33.724037 -0.073855 -0.186304 -33.897701 -0.048381 -0.160876 0.000036 0.000372 0.000017 -49.169712 0.019016 -14.455888 -34.468822 -0.036566 -0.035644 -34.266819 -0.007501 -0.017267 -0.001561 -0.000065 0.000121 -54.606510 0.006468 -7.690105 -38.767757 0.038827 -0.010723 -38.670139 0.002592 0.005946 -0.000265 0.000024 0.000010 -56.516087 0.074256 -1.545491 -40.143749 0.090618 0.054067 -40.044197 0.032770 0.030438 0.000247 0.000010 -0.000057 0.000000 0.000000 0.000000 0.000000 0.000000 0.000000 7.176606 3.941547 -0.630271 -0.093418 0.092266 23.764830 -8.500499 -11.054431 13.807660 0.322421 -1.181577 -29.384094 0.000000 0.000000 0.000000 0.000000 0.000000 0.000000 0.000000 0.000000 0.000000 7.151312 -4.055417 -3.655552 0.383655 0.657008 29.748016 -1.617362 1.847108 12.993320 -0.023370 0.642634 -30.333660 0.000000 0.000000 0.000000 0.000000 0.000000 0.000000 0.000000 0.000000 0.000000 
